<svg xmlns="http://www.w3.org/2000/svg" viewBox="-107 -66 732 732" width="732" height="732" role="img" aria-label="artoo: lossless CDISC-native dataset I/O for R">
  <defs>
    <clipPath id="hex"><polygon points="517.08,449.00 259.00,598.00 0.92,449.00 0.92,151.00 259.00,2.00 517.08,151.00"/></clipPath>
  </defs>

  <g clip-path="url(#hex)">
    <rect x="0" y="0" width="518" height="600" fill="#00111C"/>
    <g>
      <!-- badge disc behind the droid -->
      <circle cx="259" cy="220" r="152" fill="#1e3a5f"/>
      <!-- faint stars -->
      <g fill="#ffffff" opacity="0.35">
        <circle cx="142" cy="96" r="2.5"/>
        <circle cx="382" cy="118" r="2"/>
        <circle cx="98" cy="262" r="2"/>
        <circle cx="424" cy="284" r="2.5"/>
        <circle cx="356" cy="62" r="1.8"/>
      </g>

      <!-- legs -->
      <g fill="#334149">
        <rect x="141" y="195" width="46" height="140" rx="14"/>
        <rect x="331" y="195" width="46" height="140" rx="14"/>
        <polygon points="137,335 191,335 199,372 129,372"/>
        <polygon points="327,335 381,335 389,372 319,372"/>
      </g>

      <!-- body -->
      <rect x="185" y="178" width="148" height="180" rx="20" fill="#D3D6DE"/>
      <!-- chest screen carrying a tiny dataset -->
      <rect x="211" y="200" width="96" height="64" rx="8" fill="#00111C"/>
      <rect x="223" y="212" width="72" height="8" rx="4" fill="#2979E2"/>
      <rect x="223" y="228" width="56" height="8" rx="4" fill="#D3D6DE" opacity="0.85"/>
      <rect x="223" y="244" width="64" height="8" rx="4" fill="#D3D6DE" opacity="0.55"/>
      <!-- vents -->
      <rect x="219" y="286" width="34" height="42" rx="5" fill="#334149"/>
      <rect x="265" y="286" width="34" height="42" rx="5" fill="#334149"/>

      <!-- dome -->
      <path d="M179,178 A80,80 0 0 1 339,178 Z" fill="#D3D6DE"/>
      <path d="M204,120 A80,80 0 0 1 314,120 Z" fill="#2979E2"/>
      <line x1="179" y1="178" x2="339" y2="178" stroke="#334149" stroke-width="5"/>
      <!-- lens -->
      <circle cx="259" cy="152" r="26" fill="#334149"/>
      <circle cx="259" cy="152" r="17" fill="#00111C"/>
      <circle cx="252" cy="145" r="5" fill="#ffffff" opacity="0.9"/>
      <!-- indicator dots -->
      <circle cx="213" cy="160" r="7" fill="#2979E2"/>
      <circle cx="305" cy="160" r="7" fill="#EF371F"/>
    </g>
    <g fill="#ffffff"><g transform="translate(129.00 482) scale(0.08667 -0.08667)" fill="#ffffff"><path transform="translate(0 0)" d="M255 -12Q196 -12 156.0 8.5Q116 29 96.0 63.5Q76 98 76 139Q76 212 129.5 253.0Q183 294 281 294H409V305Q409 417 305 417Q262 417 232.5 398.5Q203 380 193 339H87Q95 417 154.5 462.5Q214 508 305 508Q415 508 465.0 454.0Q515 400 515 305V0H425L416 73H409Q387 38 354.0 13.0Q321 -12 255 -12ZM275 77Q340 77 372.5 116.5Q405 156 408 217H292Q235 217 211.5 198.5Q188 180 188 147Q188 114 211.5 95.5Q235 77 275 77Z"/><path transform="translate(600 0)" d="M77 0V92H198V371Q198 404 166 404H87V496H206Q247 496 273.0 472.5Q299 449 299 407V395H304Q315 451 351.5 479.5Q388 508 458 508H535V396H427Q368 396 336.0 355.0Q304 314 304 257V92H458V0Z"/><path transform="translate(1200 0)" d="M354 0Q281 0 238.0 35.5Q195 71 195 162V406H70V496H144Q195 496 204 546L219 626H301V496H497V406H301V164Q301 125 318.5 109.5Q336 94 379 94H495V0Z"/><path transform="translate(1800 0)" d="M300 -12Q229 -12 173.0 20.0Q117 52 85.0 110.5Q53 169 53 248Q53 327 85.0 385.5Q117 444 173.0 476.0Q229 508 301 508Q373 508 428.5 476.0Q484 444 515.5 385.5Q547 327 547 248Q547 169 515.0 110.5Q483 52 427.5 20.0Q372 -12 300 -12ZM300 89Q338 89 370.0 106.0Q402 123 421.5 158.5Q441 194 441 248Q441 303 421.5 338.0Q402 373 370.5 390.0Q339 407 301 407Q263 407 231.0 390.0Q199 373 179.5 338.0Q160 303 160 248Q160 166 201.5 127.5Q243 89 300 89Z"/><path transform="translate(2400 0)" d="M300 -12Q229 -12 173.0 20.0Q117 52 85.0 110.5Q53 169 53 248Q53 327 85.0 385.5Q117 444 173.0 476.0Q229 508 301 508Q373 508 428.5 476.0Q484 444 515.5 385.5Q547 327 547 248Q547 169 515.0 110.5Q483 52 427.5 20.0Q372 -12 300 -12ZM300 89Q338 89 370.0 106.0Q402 123 421.5 158.5Q441 194 441 248Q441 303 421.5 338.0Q402 373 370.5 390.0Q339 407 301 407Q263 407 231.0 390.0Q199 373 179.5 338.0Q160 303 160 248Q160 166 201.5 127.5Q243 89 300 89Z"/></g></g>
  </g>

  <polygon points="501.49,440.00 259.00,580.00 16.51,440.00 16.51,160.00 259.00,20.00 501.49,160.00" fill="none" stroke="#2979E2" stroke-width="5"/>
</svg>
