<svg xmlns="http://www.w3.org/2000/svg" viewBox="-107 -66 732 732" width="732" height="732" role="img" aria-label="artoo: lossless CDISC-native dataset I/O for R">
  <defs>
    <clipPath id="hex"><polygon points="517.08,449.00 259.00,598.00 0.92,449.00 0.92,151.00 259.00,2.00 517.08,151.00"/></clipPath>
  </defs>

  <g clip-path="url(#hex)">
    <rect x="0" y="0" width="518" height="600" fill="#00111C"/>
    <!-- badge disc behind the droid -->
    <circle cx="259" cy="220" r="152" fill="#1e3a5f"/>
    <!-- faint stars -->
    <g fill="#ffffff" opacity="0.35">
      <circle cx="142" cy="96" r="2.5"/>
      <circle cx="382" cy="118" r="2"/>
      <circle cx="98" cy="262" r="2"/>
      <circle cx="424" cy="284" r="2.5"/>
      <circle cx="356" cy="62" r="1.8"/>
    </g>

    <!-- droid: legs -->
    <g fill="#334149">
      <rect x="141" y="195" width="46" height="140" rx="14"/>
      <rect x="331" y="195" width="46" height="140" rx="14"/>
      <polygon points="137,335 191,335 199,372 129,372"/>
      <polygon points="327,335 381,335 389,372 319,372"/>
    </g>

    <!-- droid: body -->
    <rect x="185" y="178" width="148" height="180" rx="20" fill="#D3D6DE"/>
    <!-- chest screen carrying a tiny dataset -->
    <rect x="211" y="200" width="96" height="64" rx="8" fill="#00111C"/>
    <rect x="223" y="212" width="72" height="8" rx="4" fill="#2979E2"/>
    <rect x="223" y="228" width="56" height="8" rx="4" fill="#D3D6DE" opacity="0.85"/>
    <rect x="223" y="244" width="64" height="8" rx="4" fill="#D3D6DE" opacity="0.55"/>
    <!-- vents -->
    <rect x="219" y="286" width="34" height="42" rx="5" fill="#334149"/>
    <rect x="265" y="286" width="34" height="42" rx="5" fill="#334149"/>

    <!-- droid: dome -->
    <path d="M179,178 A80,80 0 0 1 339,178 Z" fill="#D3D6DE"/>
    <path d="M204,120 A80,80 0 0 1 314,120 Z" fill="#2979E2"/>
    <line x1="179" y1="178" x2="339" y2="178" stroke="#334149" stroke-width="5"/>
    <!-- lens -->
    <circle cx="259" cy="152" r="26" fill="#334149"/>
    <circle cx="259" cy="152" r="17" fill="#00111C"/>
    <circle cx="252" cy="145" r="5" fill="#ffffff" opacity="0.9"/>
    <!-- indicator dots -->
    <circle cx="213" cy="160" r="7" fill="#2979E2"/>
    <circle cx="305" cy="160" r="7" fill="#EF371F"/>

    <!-- wordmark -->
    <g fill="#ffffff"><g transform="translate(114.00 490) scale(0.05299 -0.05299)"><path transform="translate(0 0)" d="M831 129Q732 52 639.5 13.5Q547 -25 432 -25Q327 -25 247.5 16.5Q168 58 125.0 129.0Q82 200 82 283Q82 395 153.0 474.0Q224 553 348 580Q374 586 477.0 607.0Q580 628 653.5 645.5Q727 663 813 688Q808 796 769.5 846.5Q731 897 610 897Q506 897 453.5 868.0Q401 839 363.5 781.0Q326 723 310.5 704.5Q295 686 244 686Q198 686 164.5 715.5Q131 745 131 791Q131 863 182.0 931.0Q233 999 341.0 1043.0Q449 1087 610 1087Q790 1087 893.0 1044.5Q996 1002 1038.5 910.0Q1081 818 1081 666Q1081 570 1080.5 503.0Q1080 436 1079 354Q1079 277 1104.5 193.5Q1130 110 1130 86Q1130 44 1090.5 9.5Q1051 -25 1001 -25Q959 -25 918.0 14.5Q877 54 831 129ZM813 524Q753 502 638.5 477.5Q524 453 480.0 441.5Q436 430 396.0 396.5Q356 363 356 303Q356 241 403.0 197.5Q450 154 526 154Q607 154 675.5 189.5Q744 225 776 281Q813 343 813 485Z"/><path transform="translate(1257 0)" d="M412 369V141Q412 58 373.0 16.5Q334 -25 274 -25Q215 -25 177.0 17.0Q139 59 139 141V901Q139 1085 272 1085Q340 1085 370.0 1042.0Q400 999 403 915Q452 999 503.5 1042.0Q555 1085 641 1085Q727 1085 808.0 1042.0Q889 999 889 928Q889 878 854.5 845.5Q820 813 780 813Q765 813 707.5 831.5Q650 850 606 850Q546 850 508.0 818.5Q470 787 449.0 725.0Q428 663 420.0 577.5Q412 492 412 369Z"/><path transform="translate(2194 0)" d="M156 1061H186V1225Q186 1291 189.5 1328.5Q193 1366 209 1393Q225 1421 255.0 1438.5Q285 1456 322 1456Q374 1456 416 1417Q444 1391 451.5 1353.5Q459 1316 459 1247V1061H559Q617 1061 647.5 1033.5Q678 1006 678 963Q678 908 634.5 886.0Q591 864 510 864H459V362Q459 298 463.5 263.5Q468 229 487.5 207.5Q507 186 551 186Q575 186 616.0 194.5Q657 203 680 203Q713 203 739.5 176.5Q766 150 766 111Q766 45 694.0 10.0Q622 -25 487 -25Q359 -25 293.0 18.0Q227 61 206.5 137.0Q186 213 186 340V864H150Q91 864 60.0 892.0Q29 920 29 963Q29 1006 61.5 1033.5Q94 1061 156 1061Z"/><path transform="translate(2959 0)" d="M1163 530Q1163 408 1125.0 305.0Q1087 202 1015.0 128.0Q943 54 843.0 14.5Q743 -25 618 -25Q494 -25 395.0 15.0Q296 55 223.5 129.5Q151 204 113.5 305.5Q76 407 76 530Q76 654 114.0 757.0Q152 860 223.0 933.0Q294 1006 395.0 1045.5Q496 1085 618 1085Q742 1085 843.0 1045.0Q944 1005 1016.0 931.0Q1088 857 1125.5 755.0Q1163 653 1163 530ZM889 530Q889 697 815.5 790.0Q742 883 618 883Q538 883 477.0 841.5Q416 800 383.0 719.0Q350 638 350 530Q350 423 382.5 343.0Q415 263 475.5 220.5Q536 178 618 178Q742 178 815.5 271.5Q889 365 889 530Z"/><path transform="translate(4236 0)" d="M1163 530Q1163 408 1125.0 305.0Q1087 202 1015.0 128.0Q943 54 843.0 14.5Q743 -25 618 -25Q494 -25 395.0 15.0Q296 55 223.5 129.5Q151 204 113.5 305.5Q76 407 76 530Q76 654 114.0 757.0Q152 860 223.0 933.0Q294 1006 395.0 1045.5Q496 1085 618 1085Q742 1085 843.0 1045.0Q944 1005 1016.0 931.0Q1088 857 1125.5 755.0Q1163 653 1163 530ZM889 530Q889 697 815.5 790.0Q742 883 618 883Q538 883 477.0 841.5Q416 800 383.0 719.0Q350 638 350 530Q350 423 382.5 343.0Q415 263 475.5 220.5Q536 178 618 178Q742 178 815.5 271.5Q889 365 889 530Z"/></g></g>
  </g>

  <polygon points="501.49,440.00 259.00,580.00 16.51,440.00 16.51,160.00 259.00,20.00 501.49,160.00" fill="none" stroke="#2979E2" stroke-width="5"/>
</svg>
